<mxfile host="app.diagrams.net" modified="2023-04-10T07:30:27.882Z" agent="Mozilla/5.0 (Windows NT 10.0; Win64; x64) AppleWebKit/537.36 (KHTML, like Gecko) Chrome/111.0.0.0 Safari/537.36" etag="alIdZr23VYxshB_vh5cP" version="21.1.4" type="device">
  <diagram name="Page-1" id="VuHc6BB2-BrTkPGilea2">
    <mxGraphModel dx="1216" dy="515" grid="1" gridSize="10" guides="1" tooltips="1" connect="1" arrows="1" fold="1" page="1" pageScale="1" pageWidth="850" pageHeight="1100" math="0" shadow="0">
      <root>
        <mxCell id="0" />
        <mxCell id="1" parent="0" />
        <mxCell id="eczH9hrtckmbwTQw7fLa-1" value="Budget Planning" style="swimlane;whiteSpace=wrap;html=1;startSize=20;" vertex="1" parent="1">
          <mxGeometry x="290" y="10" width="270" height="510" as="geometry" />
        </mxCell>
        <mxCell id="eczH9hrtckmbwTQw7fLa-3" value="Budget Request Raise" style="ellipse;whiteSpace=wrap;html=1;" vertex="1" parent="eczH9hrtckmbwTQw7fLa-1">
          <mxGeometry x="10" y="70" width="250" height="30" as="geometry" />
        </mxCell>
        <mxCell id="eczH9hrtckmbwTQw7fLa-4" value="Bulk Request Upload" style="ellipse;whiteSpace=wrap;html=1;" vertex="1" parent="eczH9hrtckmbwTQw7fLa-1">
          <mxGeometry x="10" y="110" width="250" height="30" as="geometry" />
        </mxCell>
        <mxCell id="eczH9hrtckmbwTQw7fLa-5" value="Carry Forward" style="ellipse;whiteSpace=wrap;html=1;" vertex="1" parent="eczH9hrtckmbwTQw7fLa-1">
          <mxGeometry x="10" y="150" width="250" height="30" as="geometry" />
        </mxCell>
        <mxCell id="eczH9hrtckmbwTQw7fLa-6" value="Budget Lock" style="ellipse;whiteSpace=wrap;html=1;" vertex="1" parent="eczH9hrtckmbwTQw7fLa-1">
          <mxGeometry x="10" y="190" width="250" height="30" as="geometry" />
        </mxCell>
        <mxCell id="eczH9hrtckmbwTQw7fLa-7" value="PR Raise" style="ellipse;whiteSpace=wrap;html=1;" vertex="1" parent="eczH9hrtckmbwTQw7fLa-1">
          <mxGeometry x="10" y="230" width="250" height="30" as="geometry" />
        </mxCell>
        <mxCell id="eczH9hrtckmbwTQw7fLa-8" value="Capitalization" style="ellipse;whiteSpace=wrap;html=1;" vertex="1" parent="eczH9hrtckmbwTQw7fLa-1">
          <mxGeometry x="10" y="270" width="250" height="30" as="geometry" />
        </mxCell>
        <mxCell id="eczH9hrtckmbwTQw7fLa-9" value="Budget Request Edit" style="ellipse;whiteSpace=wrap;html=1;" vertex="1" parent="eczH9hrtckmbwTQw7fLa-1">
          <mxGeometry x="10" y="350" width="250" height="30" as="geometry" />
        </mxCell>
        <mxCell id="eczH9hrtckmbwTQw7fLa-10" value="Budget Drop" style="ellipse;whiteSpace=wrap;html=1;" vertex="1" parent="eczH9hrtckmbwTQw7fLa-1">
          <mxGeometry x="10" y="390" width="250" height="30" as="geometry" />
        </mxCell>
        <mxCell id="eczH9hrtckmbwTQw7fLa-11" value="Budget Transfer" style="ellipse;whiteSpace=wrap;html=1;" vertex="1" parent="eczH9hrtckmbwTQw7fLa-1">
          <mxGeometry x="10" y="430" width="250" height="30" as="geometry" />
        </mxCell>
        <mxCell id="eczH9hrtckmbwTQw7fLa-12" value="Budget View and Search" style="ellipse;whiteSpace=wrap;html=1;" vertex="1" parent="eczH9hrtckmbwTQw7fLa-1">
          <mxGeometry x="10" y="470" width="250" height="30" as="geometry" />
        </mxCell>
        <mxCell id="eczH9hrtckmbwTQw7fLa-31" value="Capitalization Bulk Upload" style="ellipse;whiteSpace=wrap;html=1;" vertex="1" parent="eczH9hrtckmbwTQw7fLa-1">
          <mxGeometry x="10" y="310" width="250" height="30" as="geometry" />
        </mxCell>
        <mxCell id="eczH9hrtckmbwTQw7fLa-2" value="Forum Member Add" style="ellipse;whiteSpace=wrap;html=1;" vertex="1" parent="1">
          <mxGeometry x="300" y="40" width="250" height="30" as="geometry" />
        </mxCell>
        <mxCell id="eczH9hrtckmbwTQw7fLa-13" value="Employee" style="shape=umlActor;verticalLabelPosition=bottom;verticalAlign=top;html=1;outlineConnect=0;" vertex="1" parent="1">
          <mxGeometry x="110" y="190" width="30" height="60" as="geometry" />
        </mxCell>
        <mxCell id="eczH9hrtckmbwTQw7fLa-14" value="Forum Member" style="shape=umlActor;verticalLabelPosition=bottom;verticalAlign=top;html=1;outlineConnect=0;" vertex="1" parent="1">
          <mxGeometry x="730" y="100" width="30" height="60" as="geometry" />
        </mxCell>
        <mxCell id="eczH9hrtckmbwTQw7fLa-16" value="Admin" style="shape=umlActor;verticalLabelPosition=bottom;verticalAlign=top;html=1;outlineConnect=0;" vertex="1" parent="1">
          <mxGeometry x="730" y="340" width="30" height="60" as="geometry" />
        </mxCell>
        <mxCell id="eczH9hrtckmbwTQw7fLa-19" value="" style="endArrow=classic;html=1;rounded=0;exitX=1;exitY=0.3333333333333333;exitDx=0;exitDy=0;exitPerimeter=0;entryX=0;entryY=0.5;entryDx=0;entryDy=0;" edge="1" parent="1" source="eczH9hrtckmbwTQw7fLa-13" target="eczH9hrtckmbwTQw7fLa-3">
          <mxGeometry width="50" height="50" relative="1" as="geometry">
            <mxPoint x="150" y="220" as="sourcePoint" />
            <mxPoint x="310" y="65" as="targetPoint" />
          </mxGeometry>
        </mxCell>
        <mxCell id="eczH9hrtckmbwTQw7fLa-20" value="" style="endArrow=classic;html=1;rounded=0;entryX=0;entryY=0.5;entryDx=0;entryDy=0;" edge="1" parent="1" target="eczH9hrtckmbwTQw7fLa-4">
          <mxGeometry width="50" height="50" relative="1" as="geometry">
            <mxPoint x="140" y="210" as="sourcePoint" />
            <mxPoint x="320" y="75" as="targetPoint" />
          </mxGeometry>
        </mxCell>
        <mxCell id="eczH9hrtckmbwTQw7fLa-21" value="" style="endArrow=classic;html=1;rounded=0;entryX=0;entryY=0.5;entryDx=0;entryDy=0;" edge="1" parent="1" target="eczH9hrtckmbwTQw7fLa-5">
          <mxGeometry width="50" height="50" relative="1" as="geometry">
            <mxPoint x="140" y="210" as="sourcePoint" />
            <mxPoint x="300" y="170" as="targetPoint" />
          </mxGeometry>
        </mxCell>
        <mxCell id="eczH9hrtckmbwTQw7fLa-22" value="" style="endArrow=classic;html=1;rounded=0;exitX=0;exitY=0.3333333333333333;exitDx=0;exitDy=0;exitPerimeter=0;entryX=1;entryY=0.5;entryDx=0;entryDy=0;" edge="1" parent="1" source="eczH9hrtckmbwTQw7fLa-14" target="eczH9hrtckmbwTQw7fLa-6">
          <mxGeometry width="50" height="50" relative="1" as="geometry">
            <mxPoint x="180" y="250" as="sourcePoint" />
            <mxPoint x="340" y="95" as="targetPoint" />
          </mxGeometry>
        </mxCell>
        <mxCell id="eczH9hrtckmbwTQw7fLa-23" value="" style="endArrow=classic;html=1;rounded=0;entryX=0;entryY=0.5;entryDx=0;entryDy=0;" edge="1" parent="1" target="eczH9hrtckmbwTQw7fLa-7">
          <mxGeometry width="50" height="50" relative="1" as="geometry">
            <mxPoint x="140" y="210" as="sourcePoint" />
            <mxPoint x="350" y="105" as="targetPoint" />
          </mxGeometry>
        </mxCell>
        <mxCell id="eczH9hrtckmbwTQw7fLa-24" value="" style="endArrow=classic;html=1;rounded=0;entryX=0;entryY=0.5;entryDx=0;entryDy=0;" edge="1" parent="1" target="eczH9hrtckmbwTQw7fLa-8">
          <mxGeometry width="50" height="50" relative="1" as="geometry">
            <mxPoint x="140" y="210" as="sourcePoint" />
            <mxPoint x="360" y="115" as="targetPoint" />
          </mxGeometry>
        </mxCell>
        <mxCell id="eczH9hrtckmbwTQw7fLa-25" value="" style="endArrow=classic;html=1;rounded=0;entryX=0;entryY=0.5;entryDx=0;entryDy=0;" edge="1" parent="1" target="eczH9hrtckmbwTQw7fLa-9">
          <mxGeometry width="50" height="50" relative="1" as="geometry">
            <mxPoint x="140" y="210" as="sourcePoint" />
            <mxPoint x="370" y="125" as="targetPoint" />
          </mxGeometry>
        </mxCell>
        <mxCell id="eczH9hrtckmbwTQw7fLa-26" value="" style="endArrow=classic;html=1;rounded=0;entryX=0;entryY=0.5;entryDx=0;entryDy=0;" edge="1" parent="1" target="eczH9hrtckmbwTQw7fLa-10">
          <mxGeometry width="50" height="50" relative="1" as="geometry">
            <mxPoint x="140" y="210" as="sourcePoint" />
            <mxPoint x="380" y="135" as="targetPoint" />
          </mxGeometry>
        </mxCell>
        <mxCell id="eczH9hrtckmbwTQw7fLa-27" value="" style="endArrow=classic;html=1;rounded=0;entryX=0;entryY=0.5;entryDx=0;entryDy=0;" edge="1" parent="1" target="eczH9hrtckmbwTQw7fLa-11">
          <mxGeometry width="50" height="50" relative="1" as="geometry">
            <mxPoint x="140" y="210" as="sourcePoint" />
            <mxPoint x="390" y="145" as="targetPoint" />
          </mxGeometry>
        </mxCell>
        <mxCell id="eczH9hrtckmbwTQw7fLa-28" value="" style="endArrow=classic;html=1;rounded=0;entryX=0;entryY=0.5;entryDx=0;entryDy=0;" edge="1" parent="1" target="eczH9hrtckmbwTQw7fLa-12">
          <mxGeometry width="50" height="50" relative="1" as="geometry">
            <mxPoint x="140" y="210" as="sourcePoint" />
            <mxPoint x="400" y="155" as="targetPoint" />
          </mxGeometry>
        </mxCell>
        <mxCell id="eczH9hrtckmbwTQw7fLa-29" value="" style="endArrow=classic;html=1;rounded=0;exitX=0;exitY=0.3333333333333333;exitDx=0;exitDy=0;exitPerimeter=0;entryX=1;entryY=0.5;entryDx=0;entryDy=0;" edge="1" parent="1" source="eczH9hrtckmbwTQw7fLa-14" target="eczH9hrtckmbwTQw7fLa-12">
          <mxGeometry width="50" height="50" relative="1" as="geometry">
            <mxPoint x="250" y="320" as="sourcePoint" />
            <mxPoint x="410" y="165" as="targetPoint" />
          </mxGeometry>
        </mxCell>
        <mxCell id="eczH9hrtckmbwTQw7fLa-30" value="" style="endArrow=classic;html=1;rounded=0;exitX=0;exitY=0.3333333333333333;exitDx=0;exitDy=0;exitPerimeter=0;entryX=1;entryY=0.5;entryDx=0;entryDy=0;" edge="1" parent="1" source="eczH9hrtckmbwTQw7fLa-16" target="eczH9hrtckmbwTQw7fLa-12">
          <mxGeometry width="50" height="50" relative="1" as="geometry">
            <mxPoint x="260" y="330" as="sourcePoint" />
            <mxPoint x="420" y="175" as="targetPoint" />
          </mxGeometry>
        </mxCell>
        <mxCell id="eczH9hrtckmbwTQw7fLa-32" value="" style="endArrow=classic;html=1;rounded=0;entryX=1;entryY=0.5;entryDx=0;entryDy=0;" edge="1" parent="1" target="eczH9hrtckmbwTQw7fLa-31">
          <mxGeometry width="50" height="50" relative="1" as="geometry">
            <mxPoint x="730" y="120" as="sourcePoint" />
            <mxPoint x="430" y="260" as="targetPoint" />
          </mxGeometry>
        </mxCell>
        <mxCell id="eczH9hrtckmbwTQw7fLa-33" value="" style="endArrow=classic;html=1;rounded=0;entryX=1;entryY=0.5;entryDx=0;entryDy=0;" edge="1" parent="1" target="eczH9hrtckmbwTQw7fLa-5">
          <mxGeometry width="50" height="50" relative="1" as="geometry">
            <mxPoint x="730" y="120" as="sourcePoint" />
            <mxPoint x="410" y="250" as="targetPoint" />
          </mxGeometry>
        </mxCell>
        <mxCell id="eczH9hrtckmbwTQw7fLa-34" value="" style="endArrow=classic;html=1;rounded=0;entryX=1;entryY=0.5;entryDx=0;entryDy=0;" edge="1" parent="1" target="eczH9hrtckmbwTQw7fLa-2">
          <mxGeometry width="50" height="50" relative="1" as="geometry">
            <mxPoint x="730" y="360" as="sourcePoint" />
            <mxPoint x="410" y="250" as="targetPoint" />
          </mxGeometry>
        </mxCell>
      </root>
    </mxGraphModel>
  </diagram>
</mxfile>
